PathFileType	3	(X/Y/Z)	RCH0000002 BBF 04.c3d
DataRate	CameraRate	NumFrames	NumMarkers	Units	OrigDataRate	OrigDataStartFrame	OrigNumFrames
100.0	100.0	7	23	mm	100.0	356	346
Frame#	Time	T2			MAN			RASI			LPAT			LKNE			LANK			LMED			LHEE			LTOE			RPAT			RKNE			LASI			T10			RPSI			RANK			RTOE			RMED			RHEE			LPSI			RTHI			LTHI			RTIB			LTIB			
		X1	Y1	Z1	X2	Y2	Z2	X3	Y3	Z3	X4	Y4	Z4	X5	Y5	Z5	X6	Y6	Z6	X7	Y7	Z7	X8	Y8	Z8	X9	Y9	Z9	X10	Y10	Z10	X11	Y11	Z11	X12	Y12	Z12	X13	Y13	Z13	X14	Y14	Z14	X15	Y15	Z15	X16	Y16	Z16	X17	Y17	Z17	X18	Y18	Z18	X19	Y19	Z19	X20	Y20	Z20	X21	Y21	Z21	X22	Y22	Z22	X23	Y23	Z23	

356	3.550	-824.67441	46.48120	953.04748	-691.43694	59.78145	939.21869	-696.96100	-27.27310	636.44527	-774.48056	83.51198	336.45562	-832.91687	137.28801	312.54922	-1014.14732	134.77106	108.96588	-1008.50086	67.15250	127.05040	-1030.81323	102.09519	160.60389	-983.02161	92.89480	77.85364	-630.20287	45.23774	378.30046	-663.06815	-13.12861	335.12766	-730.52135	144.78644	622.53112	-801.94469	51.22767	771.29279	-815.15136	6.78081	685.91737	-735.19790	-40.71878	77.65077	-698.75557	2.77711	68.75416	-758.17718	25.72380	86.82437	-782.77768	-18.21478	110.55894	-826.82275	75.79160	680.07016	-664.82276	-89.47389	442.47295	-808.44426	213.84944	431.29286	-679.24801	-88.24871	229.74801	-905.21334	199.65140	221.38383	
357	3.560	-815.05365	48.08408	953.13925	-681.64946	60.76704	940.42465	-687.38153	-28.69281	638.99986	-756.51019	81.64276	335.68578	-814.37153	136.01667	311.14051	-999.87065	136.30126	112.27072	-994.75371	68.35468	129.40405	-1015.74996	103.47930	163.86923	-969.92695	94.22737	79.92591	-626.90082	41.15476	377.61315	-661.13341	-16.81362	335.41946	-718.08868	143.63956	621.59214	-790.81510	53.90490	771.72896	-804.72664	8.50624	688.52603	-735.26711	-42.39834	77.69571	-698.98586	1.24801	68.86305	-758.29631	23.98724	87.68262	-782.62452	-20.16548	111.21945	-815.43884	77.68710	681.03104	-660.48964	-92.74803	443.04926	-791.27661	212.52798	430.19176	-678.41094	-91.26574	229.14286	-887.24593	199.32198	222.12037	
358	3.570	-805.58103	50.01881	953.64353	-672.04251	62.05810	941.95648	-677.95603	-30.19036	641.82509	-738.26871	79.99388	335.77895	-795.57540	134.90862	310.49407	-984.47696	137.79118	115.60132	-979.61122	69.50211	131.66283	-999.68349	104.55949	166.91749	-955.24189	95.81686	82.20476	-624.21059	36.99428	377.29012	-659.72830	-20.63933	336.11989	-705.94200	142.35382	621.18438	-779.91112	56.45180	772.57818	-794.43041	9.97627	691.43901	-735.09031	-44.04573	77.89224	-698.97893	-0.22295	69.08624	-758.22016	22.23578	88.67420	-782.33383	-22.14307	111.95712	-804.23584	79.27922	682.44186	-656.53612	-96.12694	443.98480	-774.27222	211.23719	429.97250	-677.83724	-94.39009	228.82196	-869.01188	199.08790	223.51492	
359	3.580	-796.23459	52.22565	954.54562	-662.60066	63.64077	943.78475	-668.66589	-31.72162	644.84497	-719.81470	78.66567	336.77471	-776.60276	134.03747	310.65862	-967.99768	139.21960	118.87943	-963.09007	70.58110	133.76501	-982.66217	105.32408	169.67995	-938.96971	97.64038	84.63461	-622.11405	32.93830	377.26782	-658.79997	-24.45010	337.14833	-694.10025	140.97999	621.31704	-769.23900	58.80489	773.81220	-784.25568	11.17791	694.58218	-734.70412	-45.56263	78.21562	-698.74968	-1.55771	69.38849	-757.94576	20.57753	89.74226	-781.92447	-24.01346	112.73524	-793.22011	80.55711	684.26339	-652.88593	-99.47232	445.17773	-757.53862	210.05457	430.66350	-677.53540	-97.48347	228.75594	-850.58486	198.99388	225.56751	
360	3.590	-786.98637	54.63083	955.81518	-653.30123	65.49079	945.86452	-659.49455	-33.24227	647.97980	-701.19294	77.74327	338.67404	-757.50619	133.46620	311.64204	-950.46634	140.56941	122.02299	-945.23067	71.58530	135.65757	-964.73119	105.78506	172.09825	-921.14967	99.65931	87.15303	-620.56712	29.13759	377.48765	-658.27974	-28.10865	338.42758	-682.56977	139.57301	621.97165	-758.79992	60.91381	775.38638	-774.19763	12.11876	697.87344	-734.16501	-46.87002	78.65352	-698.33604	-2.69770	69.74587	-757.49125	19.10381	90.84772	-781.42981	-25.66087	113.53698	-782.39564	81.53369	686.43546	-649.46052	-102.66194	446.53076	-741.15002	209.05420	432.24141	-677.50978	-100.42626	228.91928	-832.00490	199.07503	228.23176	
361	3.600	-777.80402	57.15149	957.40810	-644.11554	67.57473	948.13682	-650.42940	-34.71020	651.15013	-682.43668	77.29069	341.44184	-738.31709	133.24310	313.41333	-931.91695	141.83107	124.95224	-926.09333	72.51813	137.30026	-945.93057	105.97832	174.12784	-901.85296	101.82515	89.69576	-619.50102	25.70088	377.89659	-658.08629	-31.50650	339.88727	-671.34560	138.18832	623.10337	-748.59144	62.74470	777.24262	-764.25510	12.82583	701.22587	-733.53197	-47.91530	79.20051	-697.78454	-3.60735	70.14323	-756.88469	17.88064	91.96735	-780.88409	-27.00079	114.36002	-771.76529	82.24373	688.87935	-646.18348	-105.59729	447.95783	-725.14446	208.30141	434.63461	-677.75015	-103.12631	229.28798	-813.28033	199.35564	231.42070	
362	3.610	-768.65263	59.70142	959.26904	-635.01044	69.85172	950.53119	-641.46279	-36.08754	654.28015	-663.57161	77.34704	345.01170	-719.04933	133.39921	315.90758	-912.38286	143.00596	127.59491	-905.75276	73.39462	138.66700	-926.29422	105.96178	175.73903	-881.17545	104.08744	92.20084	-618.82545	22.68941	378.44643	-658.13000	-34.57043	341.46574	-660.41289	136.87819	624.64424	-738.60875	64.28206	779.31276	-754.43122	13.34254	704.55102	-732.85413	-48.67601	79.85280	-697.13929	-4.27539	70.57112	-756.15535	16.94363	93.09043	-780.31299	-27.98787	115.21045	-761.33145	82.73972	691.50147	-642.98507	-108.20860	449.38830	-709.52545	207.84823	437.73104	-678.22592	-105.52411	229.83736	-794.39310	199.85007	235.01697	
